<?xml version="1.0" encoding="UTF-8"?>
<!DOCTYPE svg PUBLIC "-//W3C//DTD SVG 1.1//EN" "http://www.w3.org/Graphics/SVG/1.1/DTD/svg11.dtd">
<svg xmlns="http://www.w3.org/2000/svg" version="1.1" width="512px" height="512px" style="shape-rendering:geometricPrecision; text-rendering:geometricPrecision; image-rendering:optimizeQuality; fill-rule:evenodd; clip-rule:evenodd" xmlns:xlink="http://www.w3.org/1999/xlink">
<g><path style="opacity:0.969" fill="#010101" d="M 30.5,-0.5 C 35.5,-0.5 40.5,-0.5 45.5,-0.5C 63.2357,7.85612 68.0691,21.1895 60,39.5C 56.5546,43.7834 52.3879,47.1167 47.5,49.5C 46.3372,54.8023 46.1705,60.1357 47,65.5C 76.4729,27.8429 114.973,5.84288 162.5,-0.5C 176.167,-0.5 189.833,-0.5 203.5,-0.5C 251.029,5.84392 289.529,27.8439 319,65.5C 319.829,60.1357 319.663,54.8023 318.5,49.5C 302.214,40.4725 298.047,27.4725 306,10.5C 309.857,5.46777 314.69,1.8011 320.5,-0.5C 325.5,-0.5 330.5,-0.5 335.5,-0.5C 351.504,6.51547 357.004,18.5155 352,35.5C 349.333,42.1667 344.667,46.8333 338,49.5C 337.333,65.8333 337.333,82.1667 338,98.5C 358.545,147.123 359.545,196.123 341,245.5C 330.589,268.161 314.756,285.994 293.5,299C 283.71,304.23 273.71,308.896 263.5,313C 279.724,323.267 288.557,338.101 290,357.5C 300.914,374.084 315.248,386.75 333,395.5C 337.811,388.047 341.977,380.214 345.5,372C 322.893,338.981 321.726,305.147 342,270.5C 364.268,240.45 393.768,228.95 430.5,236C 433.265,238.995 434.098,242.495 433,246.5C 420.761,269.145 408.928,291.978 397.5,315C 398.236,317.139 399.236,319.139 400.5,321C 406.008,324.255 411.675,327.255 417.5,330C 421.898,331.378 425.398,330.212 428,326.5C 439.706,304.254 451.539,282.087 463.5,260C 466.967,257.214 470.634,256.88 474.5,259C 499.108,286.04 505.275,316.873 493,351.5C 475.988,387.435 447.488,405.268 407.5,405C 390.951,435.262 374.785,465.762 359,496.5C 353.584,504.095 346.417,509.095 337.5,511.5C 332.167,511.5 326.833,511.5 321.5,511.5C 301.25,504.356 292.75,490.023 296,468.5C 299.878,459.742 304.045,451.076 308.5,442.5C 299.579,437.792 291.079,432.459 283,426.5C 279.654,455.68 263.487,472.68 234.5,477.5C 233.531,494.789 224.865,506.123 208.5,511.5C 191.5,511.5 174.5,511.5 157.5,511.5C 140.941,506.267 132.274,494.933 131.5,477.5C 106.351,474.184 90.8508,460.184 85,435.5C 81.0833,407.254 78.4166,378.921 77,350.5C 79.6831,333.945 88.1831,321.445 102.5,313C 48.6177,293.778 18.7844,255.612 13,198.5C 9.00461,163.792 14.0046,130.458 28,98.5C 28.6667,82.1667 28.6667,65.8333 28,49.5C 14.6076,42.3783 9.60764,31.3783 13,16.5C 16.1095,7.88855 21.9428,2.22189 30.5,-0.5 Z"/></g>
<g><path style="opacity:1" fill="#01a3eb" d="M 34.5,16.5 C 42.5449,16.0476 46.3782,19.7143 46,27.5C 43.9172,32.9035 40.0838,34.7368 34.5,33C 29.9315,30.4586 28.4315,26.6253 30,21.5C 31.3657,19.6383 32.8657,17.9717 34.5,16.5 Z"/></g>
<g><path style="opacity:1" fill="#f3f3f3" d="M 230.5,24.5 C 288.676,57.5123 318.01,107.512 318.5,174.5C 309.127,131.295 282.46,107.128 238.5,102C 199.833,101.333 161.167,101.333 122.5,102C 83.3932,108.775 58.5599,131.275 48,169.5C 42.0725,217.851 61.5725,251.017 106.5,269C 110.797,270.158 115.131,271.158 119.5,272C 160.833,272.667 202.167,272.667 243.5,272C 275.509,267.118 298.509,250.285 312.5,221.5C 307.032,248.2 293.032,269.7 270.5,286C 264.103,289.859 257.77,293.692 251.5,297.5C 239.216,301.605 226.549,304.105 213.5,305C 185.354,307.679 157.354,306.679 129.5,302C 68.5857,290.088 35.4191,253.255 30,191.5C 25.2972,133.569 44.7972,85.7357 88.5,48C 132.027,16.7043 179.36,8.87097 230.5,24.5 Z"/></g>
<g><path style="opacity:1" fill="#01a3eb" d="M 324.5,16.5 C 333.036,16.1996 336.87,20.1996 336,28.5C 333.459,33.0685 329.625,34.5685 324.5,33C 317.87,27.5501 317.87,22.0501 324.5,16.5 Z"/></g>
<g><path style="opacity:1" fill="#ccd5d8" d="M 230.5,24.5 C 273.713,38.2054 304.546,65.8721 323,107.5C 337.09,141.765 340.423,177.098 333,213.5C 322.563,257.77 295.397,285.77 251.5,297.5C 257.77,293.692 264.103,289.859 270.5,286C 293.032,269.7 307.032,248.2 312.5,221.5C 318.665,206.347 320.665,190.68 318.5,174.5C 318.01,107.512 288.676,57.5123 230.5,24.5 Z"/></g>
<g><path style="opacity:1" fill="#050505" d="M 171.5,50.5 C 178.841,50.3337 186.174,50.5003 193.5,51C 199.095,53.354 200.928,57.5207 199,63.5C 197.786,65.0488 196.286,66.2155 194.5,67C 186.5,67.6667 178.5,67.6667 170.5,67C 166.212,63.2288 165.379,58.7288 168,53.5C 169.145,52.3636 170.312,51.3636 171.5,50.5 Z"/></g>
<g><path style="opacity:1" fill="#040404" d="M 162.5,76.5 C 176.171,76.3334 189.837,76.5001 203.5,77C 207.768,79.2805 209.268,82.7805 208,87.5C 206.833,90 205,91.8333 202.5,93C 189.5,93.6667 176.5,93.6667 163.5,93C 155.937,87.8272 155.604,82.3272 162.5,76.5 Z"/></g>
<g><path style="opacity:1" fill="#030303" d="M 318.5,174.5 C 320.665,190.68 318.665,206.347 312.5,221.5C 298.509,250.285 275.509,267.118 243.5,272C 202.167,272.667 160.833,272.667 119.5,272C 115.131,271.158 110.797,270.158 106.5,269C 61.5725,251.017 42.0725,217.851 48,169.5C 58.5599,131.275 83.3932,108.775 122.5,102C 161.167,101.333 199.833,101.333 238.5,102C 282.46,107.128 309.127,131.295 318.5,174.5 Z"/></g>
<g><path style="opacity:1" fill="#5f7c89" d="M 244.5,119.5 C 277.428,139.374 290.262,168.374 283,206.5C 277.312,226.588 265.812,242.255 248.5,253.5C 246.199,254.06 243.866,254.56 241.5,255C 201.5,255.667 161.5,255.667 121.5,255C 94.737,249.57 76.5703,234.07 67,208.5C 57.6714,170.127 70.5047,141.961 105.5,124C 111.63,121.551 117.963,119.884 124.5,119C 164.516,118.202 204.516,118.369 244.5,119.5 Z"/></g>
<g><path style="opacity:1" fill="#36464e" d="M 244.5,119.5 C 280.026,127.527 299.359,149.694 302.5,186C 300.923,221.735 282.923,244.235 248.5,253.5C 265.812,242.255 277.312,226.588 283,206.5C 290.262,168.374 277.428,139.374 244.5,119.5 Z"/></g>
<g><path style="opacity:1" fill="#010203" d="M 107.5,153.5 C 129.471,151.642 140.304,161.642 140,183.5C 135.295,198.437 125.128,205.271 109.5,204C 91.4177,197.331 85.5843,184.831 92,166.5C 95.8687,160.452 101.035,156.118 107.5,153.5 Z"/></g>
<g><path style="opacity:1" fill="#010202" d="M 243.5,153.5 C 266.018,151.855 276.852,162.188 276,184.5C 270.357,200.409 259.191,206.576 242.5,203C 227.495,195.319 222.662,183.486 228,167.5C 231.471,160.865 236.638,156.198 243.5,153.5 Z"/></g>
<g><path style="opacity:1" fill="#00b4cb" d="M 110.5,170.5 C 117.649,169.163 121.982,171.996 123.5,179C 122.327,185.181 118.66,187.848 112.5,187C 106.908,184.598 105.075,180.431 107,174.5C 108.376,173.295 109.542,171.962 110.5,170.5 Z"/></g>
<g><path style="opacity:1" fill="#00b4cc" d="M 247.5,170.5 C 256.711,169.542 260.545,173.542 259,182.5C 253.159,189.394 247.825,189.061 243,181.5C 241.959,176.732 243.459,173.066 247.5,170.5 Z"/></g>
<g><path style="opacity:1" fill="#010202" d="M 154.5,204.5 C 156.527,204.338 158.527,204.505 160.5,205C 170.734,212.594 182.068,214.594 194.5,211C 198.4,209.435 202.066,207.435 205.5,205C 214.217,204.051 217.717,207.884 216,216.5C 211.166,222.306 205,226.139 197.5,228C 180.278,232.55 164.778,229.383 151,218.5C 148.267,212.722 149.434,208.056 154.5,204.5 Z"/></g>
<g><path style="opacity:1" fill="#0275b9" d="M 396.5,339.5 C 394.143,339.663 391.81,339.497 389.5,339C 383.009,335.922 376.675,332.588 370.5,329C 363.557,322.818 361.724,315.318 365,306.5C 374,289.833 383,273.167 392,256.5C 392.692,255.563 392.525,254.897 391.5,254.5C 397.48,251.573 403.814,250.573 410.5,251.5C 399.864,270.438 390.031,289.772 381,309.5C 379.073,323.317 384.24,333.317 396.5,339.5 Z"/></g>
<g><path style="opacity:1" fill="#02a7f2" d="M 391.5,254.5 C 392.525,254.897 392.692,255.563 392,256.5C 383,273.167 374,289.833 365,306.5C 361.724,315.318 363.557,322.818 370.5,329C 376.675,332.588 383.009,335.922 389.5,339C 391.81,339.497 394.143,339.663 396.5,339.5C 402.63,342.065 408.63,344.898 414.5,348C 425.653,349.617 434.82,346.117 442,337.5C 448.513,325.14 455.013,312.806 461.5,300.5C 468.932,336.642 457.266,364.976 426.5,385.5C 417.252,387.609 407.919,388.109 398.5,387C 395.79,389.628 393.456,392.461 391.5,395.5C 386.489,395.334 381.489,395.501 376.5,396C 359.951,426.262 343.785,456.762 328,487.5C 326.723,489.747 325.223,491.747 323.5,493.5C 314.729,489.292 311.229,482.292 313,472.5C 327.745,444.008 342.745,415.675 358,387.5C 361.061,382.048 363.561,376.381 365.5,370.5C 365.333,369.5 365.167,368.5 365,367.5C 343.909,343.117 339.909,316.117 353,286.5C 361.658,270.762 374.491,260.095 391.5,254.5 Z"/></g>
<g><path style="opacity:1" fill="#0275b9" d="M 426.5,385.5 C 457.266,364.976 468.932,336.642 461.5,300.5C 464.655,294.861 467.821,289.194 471,283.5C 480.318,297.447 483.651,312.781 481,329.5C 474.468,359.531 456.302,378.198 426.5,385.5 Z"/></g>
<g><path style="opacity:1" fill="#676767" d="M 199.5,343.5 C 199.5,337.167 199.5,330.833 199.5,324.5C 188.5,324.5 177.5,324.5 166.5,324.5C 166.5,330.833 166.5,337.167 166.5,343.5C 165.509,337.021 165.176,330.354 165.5,323.5C 177.167,323.5 188.833,323.5 200.5,323.5C 200.824,330.354 200.491,337.021 199.5,343.5 Z"/></g>
<g><path style="opacity:1" fill="#f3f3f3" d="M 217.5,324.5 C 224.841,324.334 232.174,324.5 239.5,325C 249.236,333.639 254.236,344.472 254.5,357.5C 252.573,377.512 250.573,397.512 248.5,417.5C 234.163,417.333 219.829,417.5 205.5,418C 200.391,421.366 199.224,425.866 202,431.5C 203.488,433.16 205.321,434.16 207.5,434.5C 219.989,435.495 232.656,435.829 245.5,435.5C 243.998,445.18 239.331,453.013 231.5,459C 197.502,459.5 163.502,459.667 129.5,459.5C 115.578,456.577 106.911,448.243 103.5,434.5C 122.503,434.667 141.503,434.5 160.5,434C 165.069,431.459 166.569,427.625 165,422.5C 163.891,420.185 162.057,418.685 159.5,418C 139.836,417.5 120.169,417.333 100.5,417.5C 97.2329,394.934 95.3995,372.267 95,349.5C 99.164,335.658 108.331,327.158 122.5,324C 131.16,323.5 139.827,323.334 148.5,323.5C 146.189,338.579 149.355,352.246 158,364.5C 171.717,376.106 186.551,377.606 202.5,369C 210.53,362.781 215.363,354.614 217,344.5C 217.5,337.842 217.666,331.175 217.5,324.5 Z"/></g>
<g><path style="opacity:1" fill="#9d9d9d" d="M 199.5,343.5 C 195.152,356.837 186.486,360.67 173.5,355C 169.25,352.267 166.916,348.434 166.5,343.5C 166.5,337.167 166.5,330.833 166.5,324.5C 177.5,324.5 188.5,324.5 199.5,324.5C 199.5,330.833 199.5,337.167 199.5,343.5 Z"/></g>
<g><path style="opacity:1" fill="#cdd6da" d="M 217.5,324.5 C 227.371,323.157 237.371,323.324 247.5,325C 262.572,330.576 270.572,341.41 271.5,357.5C 269.573,377.512 267.573,397.512 265.5,417.5C 259.833,417.5 254.167,417.5 248.5,417.5C 250.573,397.512 252.573,377.512 254.5,357.5C 254.236,344.472 249.236,333.639 239.5,325C 232.174,324.5 224.841,324.334 217.5,324.5 Z"/></g>
<g><path style="opacity:1" fill="#7c8b91" d="M 286.5,382.5 C 297.474,394.641 310.307,404.308 325,411.5C 323.1,416.633 320.6,421.633 317.5,426.5C 305.403,421.035 294.57,413.702 285,404.5C 284.867,397.132 285.367,389.799 286.5,382.5 Z"/></g>
<g><path style="opacity:1" fill="#0276ba" d="M 391.5,395.5 C 375.869,426.761 359.702,457.761 343,488.5C 337.398,494.025 330.898,495.692 323.5,493.5C 325.223,491.747 326.723,489.747 328,487.5C 343.785,456.762 359.951,426.262 376.5,396C 381.489,395.501 386.489,395.334 391.5,395.5 Z"/></g>
<g><path style="opacity:1" fill="#c9cfd2" d="M 207.5,434.5 C 225.833,434.5 244.167,434.5 262.5,434.5C 258.659,449.502 248.992,458.002 233.5,460C 198.664,460.831 163.998,460.664 129.5,459.5C 163.502,459.667 197.502,459.5 231.5,459C 239.331,453.013 243.998,445.18 245.5,435.5C 232.656,435.829 219.989,435.495 207.5,434.5 Z"/></g>
<g><path style="opacity:1" fill="#7d8c92" d="M 199.5,477.5 C 199.787,484.04 197.787,489.707 193.5,494.5C 181.757,494.936 170.09,494.436 158.5,493C 152.527,489.558 149.194,484.392 148.5,477.5C 165.5,477.5 182.5,477.5 199.5,477.5 Z"/></g>
<g><path style="opacity:1" fill="#535b5f" d="M 199.5,477.5 C 205.167,477.5 210.833,477.5 216.5,477.5C 216.498,486.343 212.165,491.843 203.5,494C 200.183,494.498 196.85,494.665 193.5,494.5C 197.787,489.707 199.787,484.04 199.5,477.5 Z"/></g>
</svg>
